<?xml version="1.0" encoding="UTF-8"?>
<!DOCTYPE svg PUBLIC "-//W3C//DTD SVG 1.1//EN" "http://www.w3.org/Graphics/SVG/1.1/DTD/svg11.dtd">
<svg xmlns="http://www.w3.org/2000/svg" version="1.1" width="2294px" height="616px" style="shape-rendering:geometricPrecision; text-rendering:geometricPrecision; image-rendering:optimizeQuality; fill-rule:evenodd; clip-rule:evenodd" xmlns:xlink="http://www.w3.org/1999/xlink">
<g><path style="opacity:0.996" fill="#0168a8" d="M 189.5,-0.5 C 331.833,-0.5 474.167,-0.5 616.5,-0.5C 613.885,77.2611 579.885,136.761 514.5,178C 482.593,196.247 448.26,205.413 411.5,205.5C 274.167,205.5 136.833,205.5 -0.5,205.5C -0.5,201.167 -0.5,196.833 -0.5,192.5C 7.78738,110.39 49.1207,51.5564 123.5,16C 144.841,7.33144 166.841,1.83144 189.5,-0.5 Z"/></g>
<g><path style="opacity:0.982" fill="#fefffe" d="M 1962.5,145.5 C 1985.5,145.5 2008.5,145.5 2031.5,145.5C 2031.5,254.833 2031.5,364.167 2031.5,473.5C 2008.5,473.5 1985.5,473.5 1962.5,473.5C 1962.5,364.167 1962.5,254.833 1962.5,145.5 Z"/></g>
<g><path style="opacity:0.985" fill="#fefffe" d="M 828.5,152.5 C 886.945,148.658 934.778,168.991 972,213.5C 974.698,217.367 977.198,221.367 979.5,225.5C 958.819,237.997 937.986,250.331 917,262.5C 902.713,239.422 881.88,226.589 854.5,224C 822.025,220.376 794.859,230.542 773,254.5C 756.823,276.875 750.489,301.875 754,329.5C 761.985,380.814 791.985,407.48 844,409.5C 875.679,409.418 900.179,396.418 917.5,370.5C 938.082,382.374 958.582,394.374 979,406.5C 977.934,409.966 976.267,413.299 974,416.5C 946.995,452.1 911.161,472.933 866.5,479C 798.021,486.664 744.187,462.498 705,406.5C 680.526,363.796 674.193,318.463 686,270.5C 700.456,220.374 731.623,184.874 779.5,164C 795.493,158.083 811.826,154.25 828.5,152.5 Z"/></g>
<g><path style="opacity:0.982" fill="#fefffe" d="M 1014.5,158.5 C 1037.5,158.5 1060.5,158.5 1083.5,158.5C 1083.33,194.835 1083.5,231.168 1084,267.5C 1092.39,256.806 1103.22,249.64 1116.5,246C 1145.43,237.934 1172.43,241.934 1197.5,258C 1219.21,275.92 1230.37,299.087 1231,327.5C 1231.5,376.166 1231.67,424.832 1231.5,473.5C 1208.5,473.5 1185.5,473.5 1162.5,473.5C 1162.67,427.499 1162.5,381.499 1162,335.5C 1157.04,315.884 1144.37,305.884 1124,305.5C 1103.71,305.469 1090.71,315.136 1085,334.5C 1083.53,380.794 1083.03,427.128 1083.5,473.5C 1060.5,473.5 1037.5,473.5 1014.5,473.5C 1014.5,368.5 1014.5,263.5 1014.5,158.5 Z"/></g>
<g><path style="opacity:0.99" fill="#fefffe" d="M 1731.5,158.5 C 1795.5,158.5 1859.5,158.5 1923.5,158.5C 1923.5,181.833 1923.5,205.167 1923.5,228.5C 1883.83,228.5 1844.17,228.5 1804.5,228.5C 1804.5,248.5 1804.5,268.5 1804.5,288.5C 1843.5,288.5 1882.5,288.5 1921.5,288.5C 1921.5,311.833 1921.5,335.167 1921.5,358.5C 1882.5,358.5 1843.5,358.5 1804.5,358.5C 1804.5,396.833 1804.5,435.167 1804.5,473.5C 1780.17,473.5 1755.83,473.5 1731.5,473.5C 1731.5,368.5 1731.5,263.5 1731.5,158.5 Z"/></g>
<g><path style="opacity:0.984" fill="#fefffe" d="M 1639.5,185.5 C 1641.49,206.14 1642.16,227.14 1641.5,248.5C 1657.17,248.5 1672.83,248.5 1688.5,248.5C 1688.5,270.5 1688.5,292.5 1688.5,314.5C 1672.83,314.5 1657.17,314.5 1641.5,314.5C 1641.06,342.866 1641.56,371.2 1643,399.5C 1644.47,404.974 1647.97,408.474 1653.5,410C 1664.78,412.431 1676.11,412.931 1687.5,411.5C 1688.5,432.489 1688.83,453.489 1688.5,474.5C 1667.43,476.279 1646.43,475.779 1625.5,473C 1594.45,465.94 1577.62,446.44 1575,414.5C 1573.57,381.191 1573.07,347.858 1573.5,314.5C 1561.5,314.5 1549.5,314.5 1537.5,314.5C 1537.5,292.5 1537.5,270.5 1537.5,248.5C 1549.5,248.5 1561.5,248.5 1573.5,248.5C 1573.5,234.167 1573.5,219.833 1573.5,205.5C 1595.77,199.406 1617.77,192.739 1639.5,185.5 Z"/></g>
<g><path style="opacity:0.997" fill="#2f77b6" d="M -0.5,205.5 C 136.833,205.5 274.167,205.5 411.5,205.5C 408.576,282.884 374.576,342.05 309.5,383C 277.344,401.54 242.677,410.706 205.5,410.5C 137.002,409.501 68.3354,409.167 -0.5,409.5C -0.5,341.5 -0.5,273.5 -0.5,205.5 Z"/></g>
<g><path style="opacity:0.985" fill="#fefffe" d="M 1358.5,242.5 C 1380.69,240.167 1401.69,244 1421.5,254C 1427.29,258.122 1432.79,262.622 1438,267.5C 1438.5,261.175 1438.67,254.842 1438.5,248.5C 1461.5,248.5 1484.5,248.5 1507.5,248.5C 1507.5,323.5 1507.5,398.5 1507.5,473.5C 1484.5,473.5 1461.5,473.5 1438.5,473.5C 1438.67,467.158 1438.5,460.825 1438,454.5C 1420.01,472.449 1398.18,481.116 1372.5,480.5C 1324.75,477.25 1291.59,453.584 1273,409.5C 1260.61,373.63 1261.94,338.297 1277,303.5C 1294.39,269.918 1321.56,249.585 1358.5,242.5 Z M 1384.5,306.5 C 1419.36,308.361 1437.36,326.694 1438.5,361.5C 1436.98,395.354 1419.31,413.354 1385.5,415.5C 1351.76,413.411 1334.1,395.411 1332.5,361.5C 1334.21,328.131 1351.54,309.797 1384.5,306.5 Z"/></g>
<g><path style="opacity:0.985" fill="#fefffe" d="M 2293.5,248.5 C 2293.5,249.833 2293.5,251.167 2293.5,252.5C 2266.87,325.879 2240.7,399.546 2215,473.5C 2206.24,497.54 2193.07,518.707 2175.5,537C 2150.3,557.725 2121.3,566.558 2088.5,563.5C 2088.5,542.167 2088.5,520.833 2088.5,499.5C 2116.56,501.641 2135.23,489.474 2144.5,463C 2114.15,391.764 2084.48,320.264 2055.5,248.5C 2080.5,248.5 2105.5,248.5 2130.5,248.5C 2146.36,293.579 2162.53,338.579 2179,383.5C 2193.73,338.802 2207.57,293.802 2220.5,248.5C 2244.83,248.5 2269.17,248.5 2293.5,248.5 Z"/></g>
<g><path style="opacity:0.993" fill="#3190ca" d="M -0.5,409.5 C 68.3354,409.167 137.002,409.501 205.5,410.5C 202.916,492.213 166.249,553.046 95.5,593C 71.6949,604.883 46.6949,612.383 20.5,615.5C 13.5,615.5 6.5,615.5 -0.5,615.5C -0.5,546.833 -0.5,478.167 -0.5,409.5 Z"/></g>
</svg>
